<svg width="48" height="48" viewBox="0 0 48 48" fill="none" xmlns="http://www.w3.org/2000/svg">
<path d="M37.8617 11.2664C35.3122 10.0966 32.5783 9.23471 29.7198 8.74108C29.6678 8.73156 29.6157 8.75537 29.5889 8.80299C29.2373 9.42835 28.8479 10.2442 28.5751 10.8854C25.5007 10.4251 22.4419 10.4251 19.4305 10.8854C19.1578 10.2299 18.7541 9.42835 18.401 8.80299C18.3742 8.75696 18.3221 8.73315 18.2701 8.74108C15.4132 9.23312 12.6793 10.095 10.1282 11.2664C10.1062 11.2759 10.0872 11.2918 10.0746 11.3124C4.88899 19.0597 3.46842 26.6165 4.1653 34.0796C4.16845 34.1162 4.18895 34.1511 4.21733 34.1733C7.63868 36.6859 10.9528 38.2112 14.2055 39.2223C14.2575 39.2382 14.3127 39.2191 14.3458 39.1763C15.1152 38.1255 15.8011 37.0176 16.3891 35.8526C16.4238 35.7843 16.3907 35.7034 16.3198 35.6764C15.2319 35.2637 14.196 34.7606 13.1996 34.1892C13.1207 34.1431 13.1144 34.0304 13.1869 33.9765C13.3966 33.8193 13.6063 33.6559 13.8066 33.4908C13.8428 33.4606 13.8933 33.4543 13.9359 33.4733C20.4822 36.4621 27.5692 36.4621 34.0383 33.4733C34.0808 33.4527 34.1313 33.459 34.1691 33.4892C34.3694 33.6543 34.5791 33.8193 34.7903 33.9765C34.8629 34.0304 34.8581 34.1431 34.7793 34.1892C33.7829 34.7717 32.747 35.2637 31.6575 35.6748C31.5866 35.7018 31.555 35.7843 31.5897 35.8526C32.1904 37.016 32.8763 38.1239 33.6315 39.1747C33.663 39.2191 33.7198 39.2382 33.7718 39.2223C37.0402 38.2112 40.3544 36.6859 43.7757 34.1733C43.8057 34.1511 43.8246 34.1177 43.8278 34.0812C44.6618 25.453 42.4308 17.9581 37.9137 11.314C37.9027 11.2918 37.8838 11.2759 37.8617 11.2664ZM17.3667 29.5354C15.3959 29.5354 13.7719 27.726 13.7719 25.5038C13.7719 23.2817 15.3643 21.4723 17.3667 21.4723C19.3848 21.4723 20.993 23.2976 20.9615 25.5038C20.9615 27.726 19.369 29.5354 17.3667 29.5354ZM30.6579 29.5354C28.6871 29.5354 27.0631 27.726 27.0631 25.5038C27.0631 23.2817 28.6556 21.4723 30.6579 21.4723C32.676 21.4723 34.2842 23.2976 34.2527 25.5038C34.2527 27.726 32.676 29.5354 30.6579 29.5354Z" fill="#5865F2"/>
</svg>
